<mxfile host="app.diagrams.net" modified="2023-11-03T19:34:48.545Z" agent="Mozilla/5.0 (Macintosh; Intel Mac OS X 10.15; rv:109.0) Gecko/20100101 Firefox/119.0" etag="QtQRi-VNm9JwA4id0F7J" version="22.0.8" type="github">
  <diagram name="Page-1" id="3Pto4WaoguGrxP1q4YiZ">
    <mxGraphModel dx="914" dy="479" grid="1" gridSize="10" guides="1" tooltips="1" connect="1" arrows="1" fold="1" page="1" pageScale="1" pageWidth="1169" pageHeight="827" math="0" shadow="0">
      <root>
        <mxCell id="0" />
        <mxCell id="1" parent="0" />
      </root>
    </mxGraphModel>
  </diagram>
</mxfile>
